# xmcd
#
# Track frame offsets:
#	150
#	11639
#	20594
#	32812
#	45470
#	55903
#	75249
#	85701
#	110584
#	126517
#	146192
#	163883
#	175130
#	185821
#
# Disc length: 2636 seconds
#
# Revision: 0
# Processed by: cddbd v1.5.2PL0 Copyright (c) Steve Scherf et al.
# Submitted via: audiograbber 1.83.01
#
DISCID=bd0a4a0e
DTITLE=Janne Andersson band - Janne Andersson band
DYEAR=2005
DGENRE=Country
TTITLE0=Härnösandståget(Folsom prison blues)
TTITLE1=Hans nya tjej(His latest flame)
TTITLE2=Jag har råd igen(On the road again)
TTITLE3=Om stövlar kunde tala(This boots are made for walking)
TTITLE4=Du skall börja vid bana(I'll never pick cotton)
TTITLE5=Fredrik Åkare o Cecilia Lind
TTITLE6=Hörrödududu(Don't talk about when I'm gone)
TTITLE7=Helen(Lucille)
TTITLE8=Haparanda(Detroit City)
TTITLE9=Jag har varit överallt(I've been everywhere)
TTITLE10=Bandet om ditt hår(Help me make it through the night)
TTITLE11=Sea of a heartbreak
TTITLE12=Jag behöver bara vara mig själv(Act naturally)
TTITLE13=Försök förstå din man(Understand your man)
EXTD=
EXTT0=
EXTT1=
EXTT2=
EXTT3=
EXTT4=
EXTT5=
EXTT6=
EXTT7=
EXTT8=
EXTT9=
EXTT10=
EXTT11=
EXTT12=
EXTT13=
PLAYORDER=
